<svg width="1960" height="481" viewBox="0 0 1960 481" fill="none" xmlns="http://www.w3.org/2000/svg">
<path d="M27 330C27 285.817 62.8172 250 107 250H272V401C272 445.183 236.183 481 192 481H27V330Z" fill="#1CB0EA"/>
<path d="M288 86C288 41.8172 323.817 6 368 6H533V157C533 201.183 497.183 237 453 237H288V86Z" fill="#1CB0EA"/>
<path fill-rule="evenodd" clip-rule="evenodd" d="M411 250C446.899 250 476 279.101 476 315V429H353C317.101 429 288 399.899 288 364V250H411ZM350 352C372.091 352 390 334.091 390 312C390 289.909 372.091 272 350 272C327.909 272 310 289.909 310 312C310 334.091 327.909 352 350 352Z" fill="#3A3CFD"/>
<path d="M241 222C235.5 234.833 205.4 251.2 129 214C88.5 191.833 6 118 0 0C4.15529 8.31057 19.1157 23.2011 46 30.5C65.4833 35.7896 90.7543 33.9002 125 38C196 46.5 314.9 106.513 256.5 197.713C251.333 163.88 209.4 90.1 85 74.5C90.5 83 147.424 93.1919 183 116.5C217.969 139.41 244.172 174.413 241 222Z" fill="#1CB0EA"/>
<path d="M770.526 92.8067C765.95 135.023 750.875 173.474 725.302 208.161C755.183 243.655 770.123 284.661 770.123 331.179C770.123 348.389 767.834 365.329 763.258 382H565V92.8067H770.526ZM693.807 150.081H622.337V223.085C654.64 204.262 678.463 179.928 693.807 150.081ZM711.978 324.726C711.17 295.686 701.614 270.813 683.309 250.108C664.735 264.898 644.411 277.401 622.337 287.619V324.726H711.978Z" fill="#1CB0EA"/>
<path d="M1030.71 92V382H973.775V233.168H868.791C868.791 233.168 868.522 233.706 867.984 234.782C856.947 269.2 851.428 305.097 851.428 342.473C851.428 354.573 852.101 367.749 853.447 382H795.706C794.629 370.438 794.091 357.262 794.091 342.473C794.091 273.905 810.377 209.371 842.949 148.871H804.993V92H1030.71ZM973.775 175.894V148.871H909.17C904.055 156.937 898.671 165.945 893.018 175.894H973.775Z" fill="#1CB0EA"/>
<path d="M1113.3 382H1056.36V92.8067H1113.3V382Z" fill="#1CB0EA"/>
<path d="M1448.83 382H1391.9V178.314C1367.94 194.717 1347.35 214.211 1330.12 236.798C1329.85 237.336 1329.31 238.008 1328.51 238.815C1347.35 272.427 1360.41 308.861 1367.67 348.12L1373.73 382H1215.04L1221.1 348.12C1228.1 308.861 1241.15 272.427 1260.27 238.815C1259.73 238.277 1259.19 237.605 1258.65 236.798C1239.27 212.598 1218.81 193.103 1197.28 178.314V382H1139.94V92C1202.66 107.596 1254.21 140.535 1294.59 190.818C1334.16 140.535 1385.57 107.596 1448.83 92V382ZM1303.47 322.306C1299.97 312.357 1297.01 304.29 1294.59 298.106C1290.28 307.786 1287.32 315.853 1285.71 322.306H1303.47Z" fill="#1CB0EA"/>
<path d="M1704.48 382C1639.07 364.522 1585.09 329.297 1542.56 276.325C1499.22 222.816 1476.48 161.643 1474.32 92.8067H1694.79V150.081H1540.95C1543.37 159.761 1546.33 168.769 1549.83 177.104H1687.12V233.975H1582.13C1613.9 276.191 1654.68 305.635 1704.48 322.306V382Z" fill="#1CB0EA"/>
<path d="M1960 92.8067C1957.58 161.374 1934.83 222.413 1891.76 275.922C1848.96 329.163 1794.99 364.522 1729.84 382V92.8067H1960ZM1893.78 150.081H1787.18V294.879C1840.75 259.923 1876.28 211.657 1893.78 150.081Z" fill="#1CB0EA"/>
</svg>
