<svg width="519" height="518" viewBox="0 0 519 518" fill="none" xmlns="http://www.w3.org/2000/svg">
<path d="M248.881 34.5503C241.731 53.6836 235.471 70.4768 234.924 71.8877L234 74.4686L235.266 74.2622C250.283 71.8189 269.03 71.9565 286.476 74.6063C288.323 74.8816 289.931 75.0536 289.999 74.9848C290.136 74.8472 262.427 0.379047 262.085 0.000512069C261.983 -0.102725 256.03 15.4172 248.881 34.5503Z" fill="#646468"/>
<path d="M132.084 34.4332C132.084 35.1198 144.826 111.862 144.964 111.999C144.999 112.033 146.277 111.141 147.796 110.008C159.882 100.943 176.975 91.4315 190.615 86.1781C192.341 85.5257 193.826 84.8733 193.999 84.7016C194.137 84.5642 181.015 73.6453 164.82 60.4257C128.7 30.9652 132.084 33.6435 132.084 34.4332Z" fill="#646468"/>
<path d="M360.502 60.7907C343.992 74.4282 330.302 85.7524 330.096 85.9596C329.786 86.2703 330.199 86.581 331.747 87.237C348.773 94.6944 361.43 102.221 375.842 113.476C377.012 114.374 378.009 115.064 378.078 114.995C378.147 114.892 387.468 58.512 390.942 37.0719C391.045 36.485 391.011 35.9671 390.839 36.0016C390.667 36.0016 377.012 47.1533 360.502 60.7907Z" fill="#646468"/>
<path d="M252.137 94.0743C218.172 95.9332 187.179 106.983 160.574 126.708C130.203 149.256 108.02 182.372 98.9331 218.827C93.0593 242.408 92.4374 266.608 97.0328 290.601C105.325 333.769 131.55 372.634 168.763 396.937C217.93 429.02 280.159 432.841 332.712 406.989C349.677 398.624 363.049 389.054 376.524 375.629C395.493 356.764 408.485 335.8 416.777 310.739C423.031 291.91 425.312 276.522 424.966 255.833C424.724 241.582 423.619 232.666 420.44 219.722C410.904 180.961 388.134 147.638 355.102 124.195C332.09 107.844 304.345 97.5856 275.529 94.7284C270.208 94.212 256.663 93.8333 252.137 94.0743ZM314.365 244.783C321.587 262.924 327.668 278.002 327.84 278.278C328.082 278.656 332.09 269.293 341.972 245.334C349.574 226.917 355.931 211.805 356.139 211.736C356.311 211.667 363.049 211.633 371.065 211.667L385.646 211.77L364.051 265.782C352.165 295.524 341.972 320.722 341.385 321.824C338.448 327.366 331.814 330.705 325.836 329.707C321.103 328.915 316.473 325.611 314.365 321.445C313.57 319.931 271.037 213.491 270.691 212.183C270.553 211.633 271.382 211.598 285.86 211.667L301.201 211.77L314.365 244.783ZM165.93 243.509C165.93 260.962 166.102 276.212 166.275 277.589C167.554 287.331 174.118 295.318 182.687 297.486C185.244 298.14 189.701 298.14 192.085 297.521C199.48 295.558 204.939 290.051 207.772 281.651L208.601 279.241L208.705 245.575L208.809 211.942H224.668H240.562V244.783C240.562 265.128 240.424 278.966 240.216 281.169C238.765 295.455 232.788 308.192 222.975 317.969C212.678 328.193 201.104 333.15 187.421 333.15C184.795 333.15 181.547 332.977 180.234 332.771C167.968 330.843 156.704 324.371 148.515 314.561C142.78 307.676 138.011 298.209 136.007 289.569C134.384 282.546 134.418 283.2 134.245 246.607L134.107 211.942H150.001H165.93V243.509Z" fill="#646468"/>
<path d="M36.0001 128.005C36.1393 128.384 86.3743 188.788 86.7224 188.994C86.8964 189.098 87.5927 187.756 88.3238 186.002C89.8207 182.424 95.0427 171.933 97.4447 167.736C102.249 159.274 106.635 152.91 114.851 142.246L116 140.802L112.24 140.217C110.186 139.907 92.188 136.949 72.2054 133.681C52.2577 130.413 35.9652 127.868 36.0001 128.005Z" fill="#646468"/>
<path d="M445.678 137.449C424.431 140.998 407.001 143.996 407.001 144.1C406.966 144.237 408.273 146.167 409.889 148.407C419.481 161.675 427.594 176.424 433.061 190.484C433.577 191.863 434.161 193 434.299 193C434.539 193 484.253 132.521 484.906 131.418C485.078 131.142 485.009 130.97 484.734 131.004C484.494 131.004 466.891 133.934 445.678 137.449Z" fill="#646468"/>
<path d="M37.6001 243.053C16.9165 250.733 0 257.104 0 257.207C0.0348795 257.483 75.0258 285.171 75.235 284.999C75.3048 284.896 75.0606 281.9 74.6421 278.318C73.1423 265.783 73.3167 250.354 75.0258 237.233C75.4443 234.306 75.828 231.241 75.9326 230.414C76.0721 229.312 76.0024 228.968 75.6536 229.002C75.3746 229.037 58.2487 235.339 37.6001 243.053Z" fill="#646468"/>
<path d="M443.799 233.417C443.799 233.661 444.146 236.443 444.528 239.608C445.431 247.05 445.779 263.326 445.223 270.907C444.876 275.498 444.146 281.827 443.243 288.365L443 290L479.784 276.159C500.035 268.542 517.124 262.074 517.784 261.761L519 261.239L517.958 260.822C515.909 260.022 444.077 233 443.938 233C443.868 233 443.799 233.209 443.799 233.417Z" fill="#646468"/>
<path d="M59.1418 355.965C45.2505 372.965 33.9317 386.964 34.0003 386.999C34.1375 387.137 111.791 374.309 111.997 374.102C112.066 374.033 110.9 372.309 109.39 370.275C99.7865 357.172 91.3146 341.793 85.7924 327.483C85.2779 326.138 84.7291 325 84.6262 325C84.5233 325 73.0673 338.931 59.1418 355.965Z" fill="#646468"/>
<path d="M431.426 331.848C429.6 336.329 424.122 347.478 421.4 352.271C417.99 358.245 411.065 368.631 407.172 373.633C405.38 375.925 403.933 377.835 404.002 377.87C404.106 378.044 482.896 391.104 483 390.999C483.138 390.895 435.629 332.369 433.458 329.938L432.597 329L431.426 331.848Z" fill="#646468"/>
<path d="M140.861 403.255C140.586 404.117 127.897 481.896 128.001 481.999C128.207 482.206 189.103 431.986 189 431.676C188.965 431.503 186.937 430.503 184.495 429.434C170.845 423.432 157.469 415.534 146.053 406.669C144.196 405.221 142.27 403.772 141.823 403.427C141.17 402.91 140.964 402.875 140.861 403.255Z" fill="#646468"/>
<path d="M370.749 408.036C358.949 417.101 343.388 425.888 328.552 431.861C325.309 433.181 324.722 433.528 325.101 433.91C325.861 434.64 386.931 485.069 387 485C387.069 484.896 374.165 406.508 373.992 406.021C373.923 405.848 372.474 406.751 370.749 408.036Z" fill="#646468"/>
<path d="M229.028 443.32C231.6 450.337 256.911 517.793 257.082 517.999C257.288 518.24 285.205 444.249 284.999 443.905C284.93 443.801 284.073 443.836 283.078 443.974C273.304 445.487 257.665 446.037 247.376 445.177C241.306 444.696 231.84 443.561 229.68 443.045C229.097 442.942 228.925 443.01 229.028 443.32Z" fill="#646468"/>
</svg>
