<svg width="500" height="500" viewBox="0 0 500 500" fill="none" xmlns="http://www.w3.org/2000/svg">
<path d="M490.862 296.683L455.341 267.278C449.073 263.787 445.171 257.162 445.171 250.001C445.171 242.833 449.073 236.214 455.341 232.729L490.862 203.311C497.99 199.363 501.494 191.059 499.398 183.17C497.282 175.295 490.087 169.86 481.935 169.993L436.463 162.276C429.295 162.408 422.611 158.632 419.02 152.404C415.443 146.195 415.502 138.525 419.199 132.382L435.246 89.1444C439.432 82.1482 438.334 73.196 432.581 67.4372C426.816 61.6647 417.849 60.5602 410.854 64.7594L367.637 80.8142C361.488 84.4969 353.805 84.5633 347.596 80.9656C341.374 77.3816 337.591 70.7106 337.717 63.5426L330.007 18.0706C330.14 9.9241 324.698 2.70335 316.837 0.60763C308.955 -1.50176 300.63 2.00901 296.682 9.15066L267.278 44.6646C263.78 50.9263 257.175 54.8277 250.001 54.8277C242.833 54.8277 236.215 50.9263 232.729 44.6646L203.325 9.15066C199.364 2.00901 191.059 -1.50176 183.171 0.60763C175.296 2.70335 169.86 9.9241 170.006 18.0706L162.296 63.5426C162.421 70.7106 158.633 77.3816 152.403 80.9656C146.208 84.5633 138.524 84.4969 132.369 80.8142L89.1447 64.7594C82.1486 60.5602 73.1955 61.6647 67.424 67.4372C61.6642 73.197 60.5734 82.1492 64.759 89.1444L80.8136 132.382C84.4972 138.525 84.5626 146.195 80.966 152.404C77.382 158.632 70.7101 162.408 63.5558 162.276L18.0706 169.993C9.92411 169.86 2.7171 175.295 0.607726 183.17C-1.50165 191.059 2.00909 199.364 9.137 203.311L44.6643 232.729C50.926 236.214 54.8273 242.833 54.8273 250.001C54.8273 257.162 50.926 263.787 44.6643 267.278L9.137 296.683C2.00909 300.644 -1.50165 308.955 0.607726 316.837C2.7171 324.699 9.92411 330.14 18.0706 330.008L63.5558 337.705C70.7101 337.592 77.382 341.375 80.966 347.596C84.5626 353.805 84.4972 361.482 80.8136 367.625L64.759 410.855C60.5734 417.852 61.6652 426.797 67.424 432.57C73.1955 438.335 82.1486 439.447 89.1447 435.247L132.369 419.192C138.524 415.503 146.208 415.443 152.403 419.021C158.632 422.61 162.421 429.282 162.296 436.463L170.006 481.935C169.86 490.087 175.295 497.296 183.171 499.398C191.059 501.494 199.364 497.99 203.325 490.862L232.729 455.341C236.215 449.073 242.833 445.171 250.001 445.171C257.175 445.171 263.781 449.072 267.278 455.341L296.682 490.862C300.63 497.989 308.955 501.494 316.837 499.398C324.698 497.296 330.14 490.087 330.007 481.935L337.717 436.463C337.591 429.282 341.374 422.61 347.596 419.021C353.805 415.442 361.488 415.503 367.637 419.192L410.854 435.247C417.85 439.447 426.816 438.335 432.581 432.57C438.333 426.797 439.431 417.851 435.246 410.855L419.199 367.625C415.502 361.482 415.443 353.805 419.02 347.596C422.611 341.375 429.295 337.592 436.463 337.705L481.935 330.008C490.087 330.14 497.282 324.699 499.398 316.837C501.494 308.955 497.99 300.644 490.862 296.683ZM179.157 347.147C160.656 354.553 143.73 363.988 129.116 373.788C135.464 340.852 153.793 312.472 179.157 293.813V347.147ZM180.03 222.097L161.159 240.962C159.109 243.018 156.372 244.155 153.449 244.155C150.541 244.155 147.796 243.024 145.733 240.968C141.488 236.703 141.488 229.78 145.72 225.528L164.604 206.657L144.675 186.748C142.605 184.677 141.475 181.927 141.475 179.004C141.481 176.095 142.618 173.358 144.682 171.308C146.738 169.251 149.476 168.115 152.398 168.115C155.32 168.115 158.059 169.252 160.121 171.316L180.03 191.225L199.946 171.316C202.01 169.252 204.747 168.115 207.663 168.115C210.585 168.115 213.323 169.252 215.379 171.322C217.43 173.359 218.566 176.096 218.573 179.005C218.573 181.928 217.442 184.679 215.373 186.749L195.463 206.658L214.328 225.522C218.58 229.78 218.58 236.704 214.328 240.962C212.265 243.025 209.521 244.155 206.604 244.155C203.695 244.155 200.951 243.024 198.889 240.968L180.03 222.097ZM243.58 332.859C227.539 333.487 212.026 336.264 197.341 340.707V282.718C211.464 275.722 227.109 271.557 243.58 270.677V332.859ZM308.028 342.493C293.382 337.626 277.877 334.274 261.762 333.15V271.001C278.398 272.641 294.004 277.785 308.028 285.648V342.493ZM319.97 222.097L301.112 240.962C299.05 243.025 296.305 244.155 293.396 244.155C290.48 244.155 287.743 243.017 285.686 240.962C281.428 236.704 281.428 229.78 285.686 225.522L304.538 206.658L284.635 186.749C282.566 184.678 281.428 181.928 281.435 179.005C281.435 176.096 282.579 173.359 284.642 171.309C286.692 169.252 289.429 168.116 292.345 168.116C295.255 168.116 298 169.253 300.062 171.317L319.971 191.226L339.894 171.317C341.944 169.253 344.681 168.116 347.603 168.116C350.526 168.116 353.263 169.253 355.327 171.323C357.377 173.36 358.521 176.097 358.521 179.006C358.527 181.929 357.39 184.68 355.32 186.75L335.404 206.659L354.268 225.523C358.526 229.781 358.526 236.705 354.268 240.963C352.211 243.019 349.467 244.156 346.559 244.156C343.65 244.156 340.906 243.025 338.842 240.963L319.97 222.097ZM326.199 349.376V298.077C348.747 316.665 365.005 343.246 370.877 373.788C357.693 364.934 342.604 356.411 326.199 349.376Z" fill="#646468"/>
</svg>
