<svg width="500" height="500" viewBox="0 0 500 500" fill="none" xmlns="http://www.w3.org/2000/svg">
<path d="M229.167 125V291.667H375V250H270.833V125H229.167ZM54.1667 320.771L16.6875 339.646C10.3958 323.312 5.83333 306.167 3.10417 288.396L44.7292 285.083C46.8125 297.375 50 309.292 54.1667 320.771ZM145.688 477.042L159.625 437.479C148.188 431.958 137.375 425.458 127.229 418.042L97.7917 448.104C112.542 459.458 128.583 469.188 145.688 477.042ZM34.875 377.146C44.0417 392.583 54.7917 406.937 66.9375 420.021L96.1875 390.167C87.2083 380.354 79.2292 369.708 72.25 358.333L34.875 377.146ZM249.917 0C191.792 0 138.479 20.0833 96.0625 53.375L50.5833 7.89583L22.3333 154L168.479 125.792L125.771 83.1042C160.479 57.1667 203.354 41.6667 249.917 41.6667C364.833 41.6667 458.313 135.125 458.313 250C458.313 364.875 364.833 458.333 249.917 458.333C232.25 458.333 215.167 455.875 198.771 451.729L184.917 491.188C205.667 496.75 227.396 500 249.917 500C388.021 500 500 388.063 500 250C500 111.938 388.021 0 249.917 0ZM0 246.854L41.9792 243.5C42.5417 228.854 44.5833 214.625 47.9792 200.854H4.72917C1.77083 215.729 0.208333 231.125 0 246.854Z" fill="#646468"/>
</svg>
