<svg width="222" height="240" viewBox="0 0 222 240" fill="none" xmlns="http://www.w3.org/2000/svg">
<path d="M217.683 101.516C224.483 115.616 221.083 134.716 216.583 147.716C212.183 160.816 206.683 167.916 203.483 175.116C200.383 182.316 199.583 189.816 195.483 202.116C191.383 214.416 184.083 231.716 172.683 237.316C161.383 242.816 145.983 236.816 131.683 227.716C117.483 218.716 104.483 206.716 96.8826 191.216C89.3826 175.616 87.3826 156.416 97.6826 146.416C107.983 136.416 130.583 135.516 145.883 124.116C161.083 112.816 168.983 90.916 181.383 84.616C193.883 78.216 210.883 87.416 217.683 101.516Z" fill="#A1A1A1"/>
<path d="M109.048 24.6295C123.348 34.2295 139.548 44.0295 142.248 56.6295C144.848 69.1295 133.948 84.5295 122.648 95.3295C111.348 106.23 99.6479 112.53 85.3479 122.43C70.9479 132.23 54.0479 145.43 41.0479 142.93C27.9479 140.33 18.8479 122.03 11.6479 104.83C4.54792 87.7295 -0.552078 71.7295 0.0479222 54.7295C0.747922 37.8295 7.14792 19.9295 19.7479 10.0295C32.2479 0.0295277 51.0479 -1.97048 66.6479 1.72952C82.2479 5.52952 94.7479 14.9295 109.048 24.6295Z" fill="#A1A1A1"/>
</svg>
