<svg width="213" height="199" viewBox="0 0 213 199" fill="none" xmlns="http://www.w3.org/2000/svg">
<path d="M207.635 29.5073C213.035 43.3073 214.835 54.7073 210.335 70.8073C205.835 86.8073 195.035 107.607 180.435 109.707C165.835 111.907 147.535 95.6073 143.735 79.9073C140.035 64.3073 151.035 49.4073 160.235 33.5073C169.435 17.5073 176.835 0.507307 185.035 0.00730656C193.235 -0.392693 202.235 15.7073 207.635 29.5073Z" fill="#3F84FC"/>
<path d="M109.048 79.8368C123.348 89.4368 139.548 99.2368 142.248 111.837C144.848 124.337 133.948 139.737 122.648 150.537C111.348 161.437 99.6479 167.737 85.3479 177.637C70.9479 187.437 54.0479 200.637 41.0479 198.137C27.9479 195.537 18.8479 177.237 11.6479 160.037C4.54792 142.937 -0.552078 126.937 0.0479222 109.937C0.747922 93.0368 7.14792 75.1368 19.7479 65.2368C32.2479 55.2368 51.0479 53.2368 66.6479 56.9368C82.2479 60.7368 94.7479 70.1368 109.048 79.8368Z" fill="#3F84FC"/>
</svg>
