<svg width="232" height="207" viewBox="0 0 232 207" fill="none" xmlns="http://www.w3.org/2000/svg">
<path d="M127.083 18.973C133.883 33.073 130.483 52.173 125.983 65.173C121.583 78.273 116.083 85.373 112.883 92.573C109.783 99.773 108.983 107.273 104.883 119.573C100.783 131.873 93.4825 149.173 82.0826 154.773C70.7825 160.273 55.3826 154.273 41.0826 145.173C26.8826 136.173 13.8826 124.173 6.28255 108.673C-1.21745 93.073 -3.21745 73.873 7.08255 63.873C17.3826 53.873 39.9826 52.973 55.2826 41.573C70.4826 30.273 78.3826 8.37298 90.7826 2.07298C103.283 -4.32702 120.283 4.87298 127.083 18.973Z" fill="#8A3FFC"/>
<path d="M202.188 105.333C217.088 121.633 232.088 140.133 231.288 159.633C230.388 179.033 213.688 199.433 194.588 204.933C175.388 210.333 153.788 200.933 139.088 189.233C124.388 177.533 116.688 163.533 114.588 149.533C112.488 135.633 116.088 121.733 124.188 107.133C132.388 92.4329 145.088 76.8329 158.788 76.0329C172.588 75.2329 187.288 89.1329 202.188 105.333Z" fill="#8A3FFC"/>
</svg>
